# xmcd
#
# Track frame offsets:
#	150
#	15642
#	31724
#	46274
#	60426
#	76542
#	94602
#	114691
#	130666
#	145678
#	164349
#	182395
#	202191
#	215811
#
# Disc length: 3092 seconds
#
# Revision: 0
# Processed by: cddbd v1.5.1PL0 Copyright (c) Steve Scherf et al.
# Submitted via: dBpowerAMP V4.0
#
DISCID=af0c120e
DTITLE=Tche Menina 2 - Tche Menina 2
DYEAR=1900
DGENRE=Country
TTITLE0=Gauchos do Litorial - Os Tiranos
TTITLE1=Gaitaco Brasileiro - Tche barbaridade
TTITLE2=A vida que o "veio mando" - Tche Garotos
TTITLE3=De tranco e vaneira - Regis marquies e grupo rodeio
TTITLE4=Vida de peao - Grupo minuano
TTITLE5=Estirpe gaucha - Grupo Candieiro
TTITLE6=Coracao de Gaiteiro - Luiz Carlos Borges e Mauro Ferreira
TTITLE7=Bate coxa no totonho - Grupo Reponte
TTITLE8=Adocando o amargo - Chiquito e bordoneio
TTITLE9=Coracao Carente - Conjunto fogo de chao
TTITLE10=Contraponto - Cristiano Quevedo
TTITLE11=Juntando beico com beico - Grupo Arte Campeira
TTITLE12=Vanera Grossa - Grupo Querencia
TTITLE13=Saudade Morena - Os nativos
EXTD=
EXTT0=
EXTT1=
EXTT2=
EXTT3=
EXTT4=
EXTT5=
EXTT6=
EXTT7=
EXTT8=
EXTT9=
EXTT10=
EXTT11=
EXTT12=
EXTT13=
PLAYORDER=
